<svg width="739" height="88" viewBox="0 0 739 88" fill="none" xmlns="http://www.w3.org/2000/svg">
<path d="M3.55664 68C1.41471 68 0.34375 66.8525 0.34375 64.5576V5.62402C0.34375 3.3291 1.41471 2.18164 3.55664 2.18164H42.9375C45.2324 2.18164 46.3799 3.17611 46.3799 5.16504V10.5811C46.3799 12.57 45.2324 13.5645 42.9375 13.5645H13.7461V28.1602H40.5049C42.7998 28.1602 43.9473 29.1546 43.9473 31.1436V36.5596C43.9473 38.5485 42.7998 39.543 40.5049 39.543H13.7461V56.6172H44.4062C46.7012 56.6172 47.8486 57.6117 47.8486 59.6006V65.0166C47.8486 67.0055 46.7012 68 44.4062 68H3.55664ZM53.8852 23.3867C53.1202 21 53.6251 19.8066 55.3998 19.8066H63.6157C65.0538 19.8066 65.9718 20.5869 66.3696 22.1475L73.4838 49.0439C73.8816 50.5433 74.2029 52.0273 74.4477 53.4961C74.7231 54.9648 74.8914 56.1582 74.9526 57.0762H75.228C75.2892 56.1582 75.4422 54.9648 75.687 53.4961C75.9623 52.0273 76.2989 50.5433 76.6967 49.0439L83.811 22.1475C84.2088 20.5869 85.1267 19.8066 86.5649 19.8066H94.7807C96.5554 19.8066 97.0603 21 96.2954 23.3867L82.9848 64.9248C82.3422 66.9749 81.2254 68 79.6342 68H70.5463C68.9552 68 67.8383 66.9749 67.1957 64.9248L53.8852 23.3867ZM99.8075 43.9033C99.8075 36.1618 101.735 30.0573 105.591 25.5898C109.477 21.1224 114.954 18.8887 122.022 18.8887C130.223 18.8887 136.312 21 140.29 25.2227C144.268 29.4453 146.257 36.2383 146.257 45.6016C146.257 47.4375 145.4 48.3555 143.686 48.3555H113.393C113.883 53.4349 115.138 56.6325 117.157 57.9482C119.177 59.264 121.517 59.9219 124.18 59.9219C126.719 59.9219 128.662 59.5853 130.009 58.9121C131.355 58.2389 132.487 57.321 133.405 56.1582C134.446 54.8118 135.731 54.5977 137.261 55.5156L141.85 58.3154C143.656 59.417 143.916 60.7327 142.631 62.2627C140.764 64.4964 138.576 66.1641 136.067 67.2656C133.558 68.3672 129.596 68.918 124.18 68.918C115.398 68.918 109.14 66.6842 105.407 62.2168C101.674 57.7493 99.8075 51.6449 99.8075 43.9033ZM113.439 39.1758H133.405C133.405 35.8711 132.579 33.1784 130.927 31.0977C129.274 28.9863 126.643 27.9307 123.032 27.9307C120.156 27.9307 117.876 28.9404 116.193 30.96C114.51 32.9489 113.592 35.6875 113.439 39.1758ZM158.076 68C156.241 68 155.323 67.082 155.323 65.2461V22.5605C155.323 20.7246 156.241 19.8066 158.076 19.8066H165.328C167.164 19.8066 168.082 20.7246 168.082 22.5605V26.3242H168.266C169.062 24.3659 170.393 22.637 172.259 21.1377C174.126 19.6383 176.329 18.8887 178.868 18.8887C180.613 18.8887 182.051 19.1029 183.183 19.5312C184.254 19.929 184.667 20.6634 184.422 21.7344L183.137 27.1963C182.862 28.4202 182.035 28.7874 180.659 28.2979C179.863 28.0225 179.098 27.8848 178.364 27.8848C175.426 27.8848 172.993 29.6442 171.066 33.1631C169.138 36.682 168.174 41.8073 168.174 48.5391V65.2461C168.174 67.082 167.256 68 165.42 68H158.076ZM187.475 23.3867C186.649 21 187.154 19.8066 188.99 19.8066H197.206C198.613 19.8066 199.531 20.5869 199.96 22.1475L206.89 47.8047C207.227 48.998 207.518 50.5433 207.762 52.4404C208.038 54.307 208.176 55.5003 208.176 56.0205H208.451C208.818 54.3988 209.078 53.1136 209.231 52.165C209.415 51.1859 209.889 49.304 210.654 46.5195L217.218 22.1475C217.646 20.5869 218.564 19.8066 219.971 19.8066H228.187C229.993 19.8066 230.497 21 229.702 23.3867L214.234 69.9277C212.429 75.3743 210.21 79.6276 207.579 82.6875C204.947 85.7474 201.291 87.2773 196.609 87.2773C194.039 87.2773 191.744 87.0632 189.724 86.6348C188.562 86.39 188.118 85.5944 188.393 84.248L189.403 79.1992C189.678 77.8835 190.459 77.4245 191.744 77.8223C192.692 78.1283 193.58 78.2812 194.406 78.2812C196.885 78.2812 198.766 77.1032 200.052 74.7471C201.367 72.391 202.239 70.3714 202.668 68.6885L202.805 68L187.475 23.3867ZM232.388 43.9033C232.388 37.1715 233.841 31.3271 236.748 26.3701C239.686 21.3825 244.75 18.8887 251.941 18.8887C254.695 18.8887 257.051 19.2865 259.009 20.082C260.967 20.8776 262.742 22.5911 264.333 25.2227H264.517C264.394 23.9987 264.333 22.7747 264.333 21.5508V3.00781C264.333 1.17188 265.251 0.253906 267.087 0.253906H274.431C276.267 0.253906 277.185 1.17188 277.185 3.00781V65.2461C277.185 67.082 276.267 68 274.431 68H267.179C265.649 68 264.823 67.082 264.7 65.2461L264.517 62.584H264.333C262.742 65.2155 260.967 66.929 259.009 67.7246C257.051 68.5202 254.695 68.918 251.941 68.918C244.75 68.918 239.686 66.4395 236.748 61.4824C233.841 56.4948 232.388 50.6351 232.388 43.9033ZM245.974 43.9033C245.974 48.7992 246.601 52.7005 247.856 55.6074C249.141 58.4837 251.849 59.9219 255.98 59.9219C258.275 59.9219 260.233 58.6367 261.855 56.0664C263.507 53.4655 264.333 50.0996 264.333 45.9688V41.8379C264.333 37.707 263.507 34.3564 261.855 31.7861C260.233 29.1852 258.275 27.8848 255.98 27.8848C251.849 27.8848 249.141 29.3382 247.856 32.2451C246.601 35.1214 245.974 39.0075 245.974 43.9033ZM286.159 55.1484C286.159 49.0286 289.081 44.5918 294.925 41.8379C300.77 39.084 307.44 37.6152 314.937 37.4316V35.5957C314.937 32.7806 314.233 30.7917 312.826 29.6289C311.418 28.4661 309.46 27.8848 306.951 27.8848C305.176 27.8848 303.6 28.1449 302.223 28.665C300.877 29.1546 299.699 29.736 298.689 30.4092C297.71 31.0518 296.823 31.7096 296.027 32.3828C294.619 33.6068 293.457 33.668 292.539 32.5664L288.729 27.8848C287.781 26.722 288.01 25.5286 289.418 24.3047C290.489 23.3561 291.728 22.5299 293.135 21.8262C294.574 21.1224 296.471 20.4645 298.827 19.8525C301.183 19.21 304.243 18.8887 308.006 18.8887C314.371 18.8887 319.252 20.3574 322.648 23.2949C326.075 26.2324 327.789 30.5622 327.789 36.2842V65.2461C327.789 67.082 326.871 68 325.035 68H317.507C315.855 68 315.029 67.082 315.029 65.2461V63.8691H314.937C313.132 65.6133 310.959 66.8984 308.42 67.7246C305.91 68.5202 303.6 68.918 301.489 68.918C296.471 68.918 292.661 67.694 290.06 65.2461C287.459 62.7676 286.159 59.4017 286.159 55.1484ZM299.745 54.873C299.745 55.944 299.959 56.8773 300.387 57.6729C300.816 58.4378 301.489 59.0039 302.407 59.3711C303.325 59.7383 304.35 59.9219 305.482 59.9219C307.043 59.9219 308.557 59.7077 310.026 59.2793C311.495 58.8509 313.132 57.8411 314.937 56.25V46.29C309.797 46.8714 306.354 47.6211 304.61 48.5391C302.866 49.457 301.611 50.4056 300.846 51.3848C300.112 52.3639 299.745 53.5267 299.745 54.873ZM336.396 23.3867C335.569 21 336.074 19.8066 337.91 19.8066H346.126C347.534 19.8066 348.452 20.5869 348.88 22.1475L355.811 47.8047C356.147 48.998 356.438 50.5433 356.683 52.4404C356.958 54.307 357.096 55.5003 357.096 56.0205H357.371C357.738 54.3988 357.998 53.1136 358.151 52.165C358.335 51.1859 358.809 49.304 359.574 46.5195L366.138 22.1475C366.566 20.5869 367.484 19.8066 368.892 19.8066H377.108C378.913 19.8066 379.418 21 378.622 23.3867L363.154 69.9277C361.349 75.3743 359.131 79.6276 356.499 82.6875C353.868 85.7474 350.211 87.2773 345.529 87.2773C342.959 87.2773 340.664 87.0632 338.645 86.6348C337.482 86.39 337.038 85.5944 337.314 84.248L338.323 79.1992C338.599 77.8835 339.379 77.4245 340.664 77.8223C341.613 78.1283 342.5 78.2812 343.326 78.2812C345.805 78.2812 347.687 77.1032 348.972 74.7471C350.288 72.391 351.16 70.3714 351.588 68.6885L351.726 68L336.396 23.3867ZM419.382 68C417.24 68 416.169 66.8525 416.169 64.5576V5.62402C416.169 3.3291 417.24 2.18164 419.382 2.18164H426.358C428.5 2.18164 429.571 3.3291 429.571 5.62402V28.0684H454.265V5.62402C454.265 3.3291 455.336 2.18164 457.478 2.18164H464.454C466.596 2.18164 467.667 3.3291 467.667 5.62402V64.5576C467.667 66.8525 466.596 68 464.454 68H457.478C455.336 68 454.265 66.8525 454.265 64.5576V39.4512H429.571V64.5576C429.571 66.8525 428.5 68 426.358 68H419.382ZM477.743 55.1484C477.743 49.0286 480.665 44.5918 486.509 41.8379C492.354 39.084 499.024 37.6152 506.521 37.4316V35.5957C506.521 32.7806 505.817 30.7917 504.41 29.6289C503.002 28.4661 501.044 27.8848 498.535 27.8848C496.76 27.8848 495.184 28.1449 493.807 28.665C492.461 29.1546 491.283 29.736 490.273 30.4092C489.294 31.0518 488.406 31.7096 487.611 32.3828C486.203 33.6068 485.04 33.668 484.122 32.5664L480.313 27.8848C479.364 26.722 479.594 25.5286 481.001 24.3047C482.072 23.3561 483.312 22.5299 484.719 21.8262C486.157 21.1224 488.054 20.4645 490.411 19.8525C492.767 19.21 495.827 18.8887 499.59 18.8887C505.955 18.8887 510.835 20.3574 514.232 23.2949C517.659 26.2324 519.372 30.5622 519.372 36.2842V65.2461C519.372 67.082 518.454 68 516.619 68H509.091C507.439 68 506.613 67.082 506.613 65.2461V63.8691H506.521C504.716 65.6133 502.543 66.8984 500.003 67.7246C497.494 68.5202 495.184 68.918 493.073 68.918C488.054 68.918 484.245 67.694 481.644 65.2461C479.043 62.7676 477.743 59.4017 477.743 55.1484ZM491.329 54.873C491.329 55.944 491.543 56.8773 491.971 57.6729C492.399 58.4378 493.073 59.0039 493.991 59.3711C494.909 59.7383 495.934 59.9219 497.066 59.9219C498.626 59.9219 500.141 59.7077 501.61 59.2793C503.079 58.8509 504.716 57.8411 506.521 56.25V46.29C501.38 46.8714 497.938 47.6211 496.194 48.5391C494.45 49.457 493.195 50.4056 492.43 51.3848C491.696 52.3639 491.329 53.5267 491.329 54.873ZM533.717 68C531.881 68 530.963 67.082 530.963 65.2461V22.5605C530.963 20.7246 531.881 19.8066 533.717 19.8066H540.969C542.805 19.8066 543.722 20.7246 543.722 22.5605V26.3242H543.906C544.702 24.3659 546.033 22.637 547.899 21.1377C549.766 19.6383 551.969 18.8887 554.509 18.8887C556.253 18.8887 557.691 19.1029 558.823 19.5312C559.894 19.929 560.307 20.6634 560.062 21.7344L558.777 27.1963C558.502 28.4202 557.676 28.7874 556.299 28.2979C555.503 28.0225 554.738 27.8848 554.004 27.8848C551.066 27.8848 548.634 29.6442 546.706 33.1631C544.778 36.682 543.814 41.8073 543.814 48.5391V65.2461C543.814 67.082 542.896 68 541.06 68H533.717ZM562.932 23.3867C562.167 21 562.672 19.8066 564.447 19.8066H572.662C574.101 19.8066 575.018 20.5869 575.416 22.1475L582.531 49.0439C582.928 50.5433 583.25 52.0273 583.494 53.4961C583.77 54.9648 583.938 56.1582 583.999 57.0762H584.275C584.336 56.1582 584.489 54.9648 584.734 53.4961C585.009 52.0273 585.346 50.5433 585.743 49.0439L592.858 22.1475C593.255 20.5869 594.173 19.8066 595.612 19.8066H603.827C605.602 19.8066 606.107 21 605.342 23.3867L592.031 64.9248C591.389 66.9749 590.272 68 588.681 68H579.593C578.002 68 576.885 66.9749 576.242 64.9248L562.932 23.3867ZM608.854 43.9033C608.854 36.1618 610.782 30.0573 614.637 25.5898C618.524 21.1224 624.001 18.8887 631.069 18.8887C639.27 18.8887 645.359 21 649.337 25.2227C653.315 29.4453 655.303 36.2383 655.303 45.6016C655.303 47.4375 654.447 48.3555 652.733 48.3555H622.44C622.93 53.4349 624.184 56.6325 626.204 57.9482C628.223 59.264 630.564 59.9219 633.226 59.9219C635.766 59.9219 637.709 59.5853 639.055 58.9121C640.402 58.2389 641.534 57.321 642.452 56.1582C643.492 54.8118 644.777 54.5977 646.307 55.5156L650.897 58.3154C652.703 59.417 652.963 60.7327 651.677 62.2627C649.811 64.4964 647.623 66.1641 645.114 67.2656C642.605 68.3672 638.642 68.918 633.226 68.918C624.444 68.918 618.187 66.6842 614.454 62.2168C610.721 57.7493 608.854 51.6449 608.854 43.9033ZM622.486 39.1758H642.452C642.452 35.8711 641.626 33.1784 639.973 31.0977C638.321 28.9863 635.69 27.9307 632.079 27.9307C629.203 27.9307 626.923 28.9404 625.24 30.96C623.557 32.9489 622.639 35.6875 622.486 39.1758ZM663.405 64.7871C661.906 63.7161 661.493 62.5687 662.166 61.3447L664.507 57.0762C665.333 55.5462 666.618 55.3626 668.362 56.5254C670.107 57.6882 672.157 58.5449 674.513 59.0957C676.9 59.6465 679.072 59.9219 681.03 59.9219C682.407 59.9219 683.693 59.7842 684.886 59.5088C686.079 59.2334 687.089 58.6979 687.915 57.9023C688.741 57.1068 689.154 55.944 689.154 54.4141C689.154 53.4961 688.91 52.7158 688.42 52.0732C687.931 51.4307 687.303 50.9411 686.538 50.6045C685.773 50.2679 684.962 49.9925 684.106 49.7783C682.973 49.5029 681.336 49.0439 679.195 48.4014C677.083 47.7588 675.048 47.0091 673.09 46.1523C671.468 45.4486 669.877 44.4694 668.317 43.2148C666.787 41.9297 665.654 40.5068 664.92 38.9463C664.216 37.3857 663.864 35.458 663.864 33.1631C663.864 30.0726 664.752 27.3646 666.527 25.0391C668.332 22.7135 670.657 21.1071 673.503 20.2197C676.349 19.3324 679.898 18.8887 684.152 18.8887C687.028 18.8887 689.828 19.3018 692.551 20.1279C695.274 20.9541 697.217 21.7344 698.38 22.4688C700.216 23.6315 700.675 24.8708 699.757 26.1865L696.957 30.2715C696.1 31.4954 694.723 31.5872 692.826 30.5469C691.388 29.7513 689.965 29.1087 688.558 28.6191C687.181 28.1296 685.636 27.8848 683.922 27.8848C682.759 27.8848 681.642 28.0072 680.571 28.252C679.501 28.4967 678.583 28.9557 677.818 29.6289C677.083 30.3021 676.716 31.1895 676.716 32.291C676.716 33.4538 677.053 34.3717 677.726 35.0449C678.43 35.6875 679.225 36.1618 680.112 36.4678C681.03 36.7738 681.903 37.0645 682.729 37.3398C684.442 37.8906 686.171 38.4261 687.915 38.9463C689.659 39.4359 691.434 40.0326 693.239 40.7363C694.8 41.3483 696.315 42.2204 697.783 43.3525C699.252 44.4847 700.323 45.9229 700.996 47.667C701.669 49.4111 702.006 51.4001 702.006 53.6338C702.006 56.6019 701.119 59.3558 699.344 61.8955C697.569 64.4352 695.228 66.2406 692.321 67.3115C689.415 68.3825 686.033 68.918 682.178 68.918C677.863 68.918 674.192 68.612 671.162 68C668.133 67.388 665.547 66.3171 663.405 64.7871ZM707.997 28.9863C706.191 28.9863 705.289 28.2214 705.289 26.6914V22.1016C705.289 20.5716 706.191 19.8066 707.997 19.8066H711.118V18.2002C711.118 16.8232 711.439 15.5687 712.082 14.4365L715.616 8.24023C716.289 7.07747 717.085 6.49609 718.003 6.49609H721.215C723.051 6.49609 723.969 7.41406 723.969 9.25V19.8066H731.405C733.21 19.8066 734.113 20.5716 734.113 22.1016V26.6914C734.113 28.2214 733.21 28.9863 731.405 28.9863H723.969V51.752C723.969 54.873 724.184 57.1221 724.612 58.499C725.071 59.8454 726.234 60.5186 728.1 60.5186C729.049 60.5186 730.12 60.3656 731.313 60.0596C732.506 59.723 733.44 59.4017 734.113 59.0957C735.184 58.6061 735.888 58.958 736.224 60.1514L737.601 65.3838C737.877 66.4242 737.479 67.1891 736.408 67.6787C735.398 68.1377 734.006 68.5508 732.231 68.918C730.487 69.3158 728.727 69.5146 726.953 69.5146C722.577 69.5146 718.844 68.612 715.754 66.8066C712.663 65.0013 711.118 61.2835 711.118 55.6533V28.9863H707.997Z" fill="black"/>
</svg>
